<mxfile host="app.diagrams.net" modified="2020-11-09T03:48:48.170Z" agent="5.0 (Windows NT 10.0; Win64; x64) AppleWebKit/537.36 (KHTML, like Gecko) Chrome/86.0.4240.183 Safari/537.36" etag="hk3Wt6Plx_9TWz7WLasf" version="13.8.9-1" type="github">
  <diagram name="Page-1" id="97916047-d0de-89f5-080d-49f4d83e522f">
    <mxGraphModel dx="4919.5" dy="1377" grid="1" gridSize="10" guides="1" tooltips="1" connect="1" arrows="1" fold="1" page="1" pageScale="1.5" pageWidth="1169" pageHeight="827" background="#ffffff" math="0" shadow="0">
      <root>
        <mxCell id="0" />
        <mxCell id="1" parent="0" />
        <mxCell id="2" value="Informe Anual" style="rounded=1;fillColor=#10739E;strokeColor=none;shadow=1;gradientColor=none;fontStyle=1;fontColor=#FFFFFF;fontSize=14;" parent="1" vertex="1">
          <mxGeometry x="1095" y="180" width="200" height="60" as="geometry" />
        </mxCell>
        <mxCell id="3" value="Elaborar un plan detallado / Alexis" style="rounded=1;fillColor=#10739E;strokeColor=none;shadow=1;gradientColor=none;fontStyle=1;fontColor=#FFFFFF;fontSize=14;" parent="1" vertex="1">
          <mxGeometry x="-105" y="435" width="280" height="70" as="geometry" />
        </mxCell>
        <mxCell id="13" value="Elaborar el programa del proyecto / Alexis" style="rounded=1;fillColor=#10739E;strokeColor=none;shadow=1;gradientColor=none;fontStyle=1;fontColor=#FFFFFF;fontSize=14;" parent="1" vertex="1">
          <mxGeometry x="-115" y="575" width="300" height="60" as="geometry" />
        </mxCell>
        <mxCell id="18" value="Irse de viaje&#xa; / Alexis, Grace, Levi y Lakysha" style="rounded=1;fillColor=#10739E;strokeColor=none;shadow=1;gradientColor=none;fontStyle=1;fontColor=#FFFFFF;fontSize=14;" parent="1" vertex="1">
          <mxGeometry x="406.25" y="430" width="222.5" height="75" as="geometry" />
        </mxCell>
        <mxCell id="54" value="" style="edgeStyle=elbowEdgeStyle;elbow=vertical;strokeWidth=4;endArrow=block;endFill=1;fontStyle=1;strokeColor=#23445D;exitX=0.5;exitY=1;exitDx=0;exitDy=0;entryX=0.5;entryY=0;entryDx=0;entryDy=0;" parent="1" source="3" target="13" edge="1">
          <mxGeometry x="-283" y="160.5" width="100" height="100" as="geometry">
            <mxPoint x="-283" y="260.5" as="sourcePoint" />
            <mxPoint x="-183" y="160.5" as="targetPoint" />
            <Array as="points">
              <mxPoint x="45" y="535" />
              <mxPoint x="335" y="435" />
              <mxPoint x="275" y="455" />
              <mxPoint x="335" y="435" />
              <mxPoint x="295" y="465" />
              <mxPoint x="347" y="550.5" />
            </Array>
          </mxGeometry>
        </mxCell>
        <mxCell id="MonK_nBEftqNI48fa0WK-60" value="Reservar los viajes a los destinos A, B y C&#xa;/ Alexis" style="rounded=1;fillColor=#10739E;strokeColor=none;shadow=1;gradientColor=none;fontStyle=1;fontColor=#FFFFFF;fontSize=14;" parent="1" vertex="1">
          <mxGeometry x="-120" y="695" width="310" height="60" as="geometry" />
        </mxCell>
        <mxCell id="MonK_nBEftqNI48fa0WK-61" value="Reservar hospedaje de hoteles y los viáticos&#xa;/ Alexis" style="rounded=1;fillColor=#10739E;strokeColor=none;shadow=1;gradientColor=none;fontStyle=1;fontColor=#FFFFFF;fontSize=14;" parent="1" vertex="1">
          <mxGeometry x="-120" y="845" width="310" height="90" as="geometry" />
        </mxCell>
        <mxCell id="MonK_nBEftqNI48fa0WK-63" value="" style="edgeStyle=elbowEdgeStyle;elbow=vertical;strokeWidth=4;endArrow=block;endFill=1;fontStyle=1;strokeColor=#23445D;entryX=0.5;entryY=0;entryDx=0;entryDy=0;exitX=0.5;exitY=1;exitDx=0;exitDy=0;" parent="1" source="13" target="MonK_nBEftqNI48fa0WK-60" edge="1">
          <mxGeometry x="-133" y="435" width="100" height="100" as="geometry">
            <mxPoint x="305" y="635" as="sourcePoint" />
            <mxPoint x="535" y="849.5" as="targetPoint" />
            <Array as="points">
              <mxPoint x="15" y="685" />
              <mxPoint x="145" y="705" />
              <mxPoint x="75" y="645" />
              <mxPoint x="415" y="685" />
              <mxPoint x="415" y="675" />
              <mxPoint x="485" y="729.5" />
              <mxPoint x="525" y="679.5" />
              <mxPoint x="817" y="825" />
            </Array>
          </mxGeometry>
        </mxCell>
        <mxCell id="qH_kxZcO0b0OmxRwehkp-75" value="" style="edgeStyle=elbowEdgeStyle;elbow=vertical;strokeWidth=4;endArrow=block;endFill=1;fontStyle=1;strokeColor=#23445D;entryX=0.5;entryY=0;entryDx=0;entryDy=0;exitX=0.5;exitY=1;exitDx=0;exitDy=0;" parent="1" source="MonK_nBEftqNI48fa0WK-60" target="MonK_nBEftqNI48fa0WK-61" edge="1">
          <mxGeometry x="-133" y="565" width="100" height="100" as="geometry">
            <mxPoint x="34.999999999999545" y="765" as="sourcePoint" />
            <mxPoint x="34.999999999999545" y="825" as="targetPoint" />
            <Array as="points">
              <mxPoint x="35" y="785" />
              <mxPoint x="15" y="815" />
              <mxPoint x="145" y="835" />
              <mxPoint x="75" y="775" />
              <mxPoint x="415" y="815" />
              <mxPoint x="415" y="805" />
              <mxPoint x="485" y="859.5" />
              <mxPoint x="525" y="809.5" />
              <mxPoint x="817" y="955" />
            </Array>
          </mxGeometry>
        </mxCell>
        <mxCell id="nJVkl-Y024d4mezmcb8f-54" value="" style="edgeStyle=elbowEdgeStyle;elbow=vertical;strokeWidth=4;endArrow=block;endFill=1;fontStyle=1;strokeColor=#23445D;exitX=0.5;exitY=1;exitDx=0;exitDy=0;entryX=0.5;entryY=0;entryDx=0;entryDy=0;" parent="1" source="2" target="3" edge="1">
          <mxGeometry x="20.82" y="55.5" width="100" height="100" as="geometry">
            <mxPoint x="338.82" y="410" as="sourcePoint" />
            <mxPoint x="339" y="450" as="targetPoint" />
            <Array as="points">
              <mxPoint x="600" y="360" />
              <mxPoint x="348.82" y="430" />
              <mxPoint x="638.82" y="330" />
              <mxPoint x="578.82" y="350" />
              <mxPoint x="638.82" y="330" />
              <mxPoint x="598.82" y="360" />
              <mxPoint x="650.82" y="445.5" />
            </Array>
          </mxGeometry>
        </mxCell>
        <mxCell id="KjV3DGh9lTV0_PXk-z0F-56" value="" style="edgeStyle=elbowEdgeStyle;elbow=vertical;strokeWidth=4;endArrow=block;endFill=1;fontStyle=1;strokeColor=#23445D;entryX=0.5;entryY=0;entryDx=0;entryDy=0;exitX=0.5;exitY=1;exitDx=0;exitDy=0;" parent="1" source="2" target="18" edge="1">
          <mxGeometry x="622" y="100" width="100" height="100" as="geometry">
            <mxPoint x="790" y="290" as="sourcePoint" />
            <mxPoint x="790" y="380" as="targetPoint" />
            <Array as="points">
              <mxPoint x="660" y="360" />
              <mxPoint x="610" y="350" />
              <mxPoint x="790" y="320" />
              <mxPoint x="770" y="350" />
              <mxPoint x="900" y="370" />
              <mxPoint x="830" y="310" />
              <mxPoint x="1170" y="350" />
              <mxPoint x="1170" y="340" />
              <mxPoint x="1240" y="394.5" />
              <mxPoint x="1280" y="344.5" />
              <mxPoint x="1572" y="490" />
            </Array>
          </mxGeometry>
        </mxCell>
        <mxCell id="KjV3DGh9lTV0_PXk-z0F-57" value="Llegar al Destino A&#xa;/ Alexis, Grace, Levi y Lakysha" style="rounded=1;fillColor=#10739E;strokeColor=none;shadow=1;gradientColor=none;fontStyle=1;fontColor=#FFFFFF;fontSize=14;" parent="1" vertex="1">
          <mxGeometry x="368.5" y="575" width="300" height="60" as="geometry" />
        </mxCell>
        <mxCell id="KjV3DGh9lTV0_PXk-z0F-58" value="Tomar fotografías de hospitales y clínicas &#xa;e instalaciones de atención medica&#xa;/ Lakysha" style="rounded=1;fillColor=#10739E;strokeColor=none;shadow=1;gradientColor=none;fontStyle=1;fontColor=#FFFFFF;fontSize=14;" parent="1" vertex="1">
          <mxGeometry x="210" y="777.5" width="315" height="60" as="geometry" />
        </mxCell>
        <mxCell id="KjV3DGh9lTV0_PXk-z0F-59" value="Realizar entrevistas a testimonios&#xa;/ Levi" style="rounded=1;fillColor=#10739E;strokeColor=none;shadow=1;gradientColor=none;fontStyle=1;fontColor=#FFFFFF;fontSize=14;" parent="1" vertex="1">
          <mxGeometry x="550" y="777.5" width="237.5" height="60" as="geometry" />
        </mxCell>
        <mxCell id="KjV3DGh9lTV0_PXk-z0F-60" value="" style="edgeStyle=elbowEdgeStyle;elbow=vertical;strokeWidth=4;endArrow=block;endFill=1;fontStyle=1;strokeColor=#23445D;entryX=0.5;entryY=0;entryDx=0;entryDy=0;exitX=0.5;exitY=1;exitDx=0;exitDy=0;" parent="1" source="KjV3DGh9lTV0_PXk-z0F-57" target="KjV3DGh9lTV0_PXk-z0F-58" edge="1">
          <mxGeometry x="349.5" y="435" width="100" height="100" as="geometry">
            <mxPoint x="787.5" y="635" as="sourcePoint" />
            <mxPoint x="1017.5" y="849.5" as="targetPoint" />
            <Array as="points">
              <mxPoint x="460" y="680" />
              <mxPoint x="450" y="670" />
              <mxPoint x="497.5" y="685" />
              <mxPoint x="627.5" y="705" />
              <mxPoint x="557.5" y="645" />
              <mxPoint x="897.5" y="685" />
              <mxPoint x="897.5" y="675" />
              <mxPoint x="967.5" y="729.5" />
              <mxPoint x="1007.5" y="679.5" />
              <mxPoint x="1299.5" y="825" />
            </Array>
          </mxGeometry>
        </mxCell>
        <mxCell id="KjV3DGh9lTV0_PXk-z0F-61" value="" style="edgeStyle=elbowEdgeStyle;elbow=vertical;strokeWidth=4;endArrow=block;endFill=1;fontStyle=1;strokeColor=#23445D;entryX=0.5;entryY=0;entryDx=0;entryDy=0;exitX=0.5;exitY=1;exitDx=0;exitDy=0;" parent="1" source="KjV3DGh9lTV0_PXk-z0F-57" target="KjV3DGh9lTV0_PXk-z0F-59" edge="1">
          <mxGeometry x="383.5" y="700" width="100" height="100" as="geometry">
            <mxPoint x="551.4999999999995" y="900" as="sourcePoint" />
            <mxPoint x="551.4999999999995" y="960" as="targetPoint" />
            <Array as="points">
              <mxPoint x="610" y="680" />
              <mxPoint x="530" y="690" />
              <mxPoint x="540" y="690" />
              <mxPoint x="560" y="680" />
              <mxPoint x="620" y="690" />
              <mxPoint x="551.5" y="920" />
              <mxPoint x="531.5" y="950" />
              <mxPoint x="661.5" y="970" />
              <mxPoint x="591.5" y="910" />
              <mxPoint x="931.5" y="950" />
              <mxPoint x="931.5" y="940" />
              <mxPoint x="1001.5" y="994.5" />
              <mxPoint x="1041.5" y="944.5" />
              <mxPoint x="1333.5" y="1090" />
            </Array>
          </mxGeometry>
        </mxCell>
        <mxCell id="KjV3DGh9lTV0_PXk-z0F-62" value="" style="edgeStyle=elbowEdgeStyle;elbow=vertical;strokeWidth=4;endArrow=block;endFill=1;fontStyle=1;strokeColor=#23445D;exitX=0.5;exitY=1;exitDx=0;exitDy=0;entryX=0.5;entryY=0;entryDx=0;entryDy=0;" parent="1" source="18" target="KjV3DGh9lTV0_PXk-z0F-57" edge="1">
          <mxGeometry x="169.5" y="160.5" width="100" height="100" as="geometry">
            <mxPoint x="487.5" y="505" as="sourcePoint" />
            <mxPoint x="487.5" y="575" as="targetPoint" />
            <Array as="points">
              <mxPoint x="497.5" y="535" />
              <mxPoint x="787.5" y="435" />
              <mxPoint x="727.5" y="455" />
              <mxPoint x="787.5" y="435" />
              <mxPoint x="747.5" y="465" />
              <mxPoint x="799.5" y="550.5" />
            </Array>
          </mxGeometry>
        </mxCell>
        <mxCell id="KjV3DGh9lTV0_PXk-z0F-68" value="Llegar al Destino B&#xa;/ Alexis, Grace, Levi y Lakysha" style="rounded=1;fillColor=#10739E;strokeColor=none;shadow=1;gradientColor=none;fontStyle=1;fontColor=#FFFFFF;fontSize=14;" parent="1" vertex="1">
          <mxGeometry x="945" y="420" width="221.5" height="75" as="geometry" />
        </mxCell>
        <mxCell id="KjV3DGh9lTV0_PXk-z0F-70" value="Tomar fotografías de hospitales y clínicas &#xa;e instalaciones de atención medica&#xa;/ Lakysha" style="rounded=1;fillColor=#10739E;strokeColor=none;shadow=1;gradientColor=none;fontStyle=1;fontColor=#FFFFFF;fontSize=14;" parent="1" vertex="1">
          <mxGeometry x="750" y="620" width="315" height="60" as="geometry" />
        </mxCell>
        <mxCell id="KjV3DGh9lTV0_PXk-z0F-71" value="Realizar entrevistas a testimonios &#xa;/ Levi" style="rounded=1;fillColor=#10739E;strokeColor=none;shadow=1;gradientColor=none;fontStyle=1;fontColor=#FFFFFF;fontSize=14;" parent="1" vertex="1">
          <mxGeometry x="1095" y="622.5" width="240" height="55" as="geometry" />
        </mxCell>
        <mxCell id="KjV3DGh9lTV0_PXk-z0F-73" value="" style="edgeStyle=elbowEdgeStyle;elbow=vertical;strokeWidth=4;endArrow=block;endFill=1;fontStyle=1;strokeColor=#23445D;entryX=0.5;entryY=0;entryDx=0;entryDy=0;exitX=0.5;exitY=1;exitDx=0;exitDy=0;" parent="1" source="KjV3DGh9lTV0_PXk-z0F-68" target="KjV3DGh9lTV0_PXk-z0F-71" edge="1">
          <mxGeometry x="815.25" y="542.5" width="100" height="100" as="geometry">
            <mxPoint x="983.2499999999995" y="742.5" as="sourcePoint" />
            <mxPoint x="983.2499999999995" y="802.5" as="targetPoint" />
            <Array as="points">
              <mxPoint x="1065" y="530" />
              <mxPoint x="1205" y="580" />
              <mxPoint x="1165" y="528" />
              <mxPoint x="1069.25" y="527.5" />
              <mxPoint x="1015.75" y="692.5" />
              <mxPoint x="1093.25" y="812.5" />
              <mxPoint x="1023.25" y="752.5" />
              <mxPoint x="1363.25" y="792.5" />
              <mxPoint x="1363.25" y="782.5" />
              <mxPoint x="1433.25" y="837" />
              <mxPoint x="1473.25" y="787" />
              <mxPoint x="1765.25" y="932.5" />
            </Array>
          </mxGeometry>
        </mxCell>
        <mxCell id="KjV3DGh9lTV0_PXk-z0F-74" value="" style="edgeStyle=elbowEdgeStyle;elbow=vertical;strokeWidth=4;endArrow=block;endFill=1;fontStyle=1;strokeColor=#23445D;exitX=0.5;exitY=1;exitDx=0;exitDy=0;entryX=0.5;entryY=0;entryDx=0;entryDy=0;" parent="1" source="KjV3DGh9lTV0_PXk-z0F-68" target="KjV3DGh9lTV0_PXk-z0F-70" edge="1">
          <mxGeometry x="635.25" y="138" width="100" height="100" as="geometry">
            <mxPoint x="953.25" y="482.5" as="sourcePoint" />
            <mxPoint x="971.75" y="597.5" as="targetPoint" />
            <Array as="points">
              <mxPoint x="945" y="530" />
              <mxPoint x="1253.25" y="412.5" />
              <mxPoint x="1193.25" y="432.5" />
              <mxPoint x="1253.25" y="412.5" />
              <mxPoint x="1213.25" y="442.5" />
              <mxPoint x="1265.25" y="528" />
            </Array>
          </mxGeometry>
        </mxCell>
        <mxCell id="KjV3DGh9lTV0_PXk-z0F-75" value="Llegar al Destino C&#xa;/ Alexis, Grace, Levi y Lakysha" style="rounded=1;fillColor=#10739E;strokeColor=none;shadow=1;gradientColor=none;fontStyle=1;fontColor=#FFFFFF;fontSize=14;" parent="1" vertex="1">
          <mxGeometry x="1625" y="400" width="210" height="75" as="geometry" />
        </mxCell>
        <mxCell id="KjV3DGh9lTV0_PXk-z0F-76" value="Tomar fotografías de hospitales y clínicas &#xa;e instalaciones de atención medica&#xa;/ Lakysha" style="rounded=1;fillColor=#10739E;strokeColor=none;shadow=1;gradientColor=none;fontStyle=1;fontColor=#FFFFFF;fontSize=14;" parent="1" vertex="1">
          <mxGeometry x="1410" y="620" width="315" height="60" as="geometry" />
        </mxCell>
        <mxCell id="KjV3DGh9lTV0_PXk-z0F-77" value="Realizar entrevistas a testimonios&#xa;/ Levi" style="rounded=1;fillColor=#10739E;strokeColor=none;shadow=1;gradientColor=none;fontStyle=1;fontColor=#FFFFFF;fontSize=14;" parent="1" vertex="1">
          <mxGeometry x="1770" y="617.5" width="240" height="62.5" as="geometry" />
        </mxCell>
        <mxCell id="KjV3DGh9lTV0_PXk-z0F-78" value="" style="edgeStyle=elbowEdgeStyle;elbow=vertical;strokeWidth=4;endArrow=block;endFill=1;fontStyle=1;strokeColor=#23445D;entryX=0.5;entryY=0;entryDx=0;entryDy=0;exitX=0.5;exitY=1;exitDx=0;exitDy=0;" parent="1" source="KjV3DGh9lTV0_PXk-z0F-75" target="KjV3DGh9lTV0_PXk-z0F-77" edge="1">
          <mxGeometry x="1827" y="542.5" width="100" height="100" as="geometry">
            <mxPoint x="1994.9999999999995" y="742.5" as="sourcePoint" />
            <mxPoint x="1994.9999999999995" y="802.5" as="targetPoint" />
            <Array as="points">
              <mxPoint x="1950" y="552.5" />
              <mxPoint x="2375" y="792.5" />
              <mxPoint x="2375" y="782.5" />
              <mxPoint x="2445" y="837" />
              <mxPoint x="2485" y="787" />
              <mxPoint x="2777" y="932.5" />
            </Array>
          </mxGeometry>
        </mxCell>
        <mxCell id="KjV3DGh9lTV0_PXk-z0F-79" value="" style="edgeStyle=elbowEdgeStyle;elbow=vertical;strokeWidth=4;endArrow=block;endFill=1;fontStyle=1;strokeColor=#23445D;exitX=0.5;exitY=1;exitDx=0;exitDy=0;entryX=0.5;entryY=0;entryDx=0;entryDy=0;" parent="1" source="KjV3DGh9lTV0_PXk-z0F-75" target="KjV3DGh9lTV0_PXk-z0F-76" edge="1">
          <mxGeometry x="1647" y="138" width="100" height="100" as="geometry">
            <mxPoint x="1965" y="482.5" as="sourcePoint" />
            <mxPoint x="1995" y="552.5" as="targetPoint" />
            <Array as="points">
              <mxPoint x="1719" y="552.5" />
              <mxPoint x="1975" y="512.5" />
              <mxPoint x="2265" y="412.5" />
              <mxPoint x="2205" y="432.5" />
              <mxPoint x="2265" y="412.5" />
              <mxPoint x="2225" y="442.5" />
              <mxPoint x="2277" y="528" />
            </Array>
          </mxGeometry>
        </mxCell>
        <mxCell id="KjV3DGh9lTV0_PXk-z0F-80" value="" style="edgeStyle=elbowEdgeStyle;elbow=vertical;strokeWidth=4;endArrow=block;endFill=1;fontStyle=1;strokeColor=#23445D;entryX=0.5;entryY=0;entryDx=0;entryDy=0;exitX=0.5;exitY=1;exitDx=0;exitDy=0;" parent="1" source="2" target="KjV3DGh9lTV0_PXk-z0F-68" edge="1">
          <mxGeometry x="692" y="100" width="100" height="100" as="geometry">
            <mxPoint x="820" y="260" as="sourcePoint" />
            <mxPoint x="820" y="435" as="targetPoint" />
            <Array as="points">
              <mxPoint x="1020" y="360" />
              <mxPoint x="1050" y="320" />
              <mxPoint x="860" y="360" />
              <mxPoint x="820" y="360" />
              <mxPoint x="860" y="320" />
              <mxPoint x="840" y="350" />
              <mxPoint x="970" y="370" />
              <mxPoint x="900" y="310" />
              <mxPoint x="1240" y="350" />
              <mxPoint x="1240" y="340" />
              <mxPoint x="1310" y="394.5" />
              <mxPoint x="1350" y="344.5" />
              <mxPoint x="1642" y="490" />
            </Array>
          </mxGeometry>
        </mxCell>
        <mxCell id="KjV3DGh9lTV0_PXk-z0F-81" value="" style="edgeStyle=elbowEdgeStyle;elbow=vertical;strokeWidth=4;endArrow=block;endFill=1;fontStyle=1;strokeColor=#23445D;entryX=0.5;entryY=0;entryDx=0;entryDy=0;exitX=0.5;exitY=1;exitDx=0;exitDy=0;" parent="1" source="2" target="KjV3DGh9lTV0_PXk-z0F-75" edge="1">
          <mxGeometry x="742" y="105" width="100" height="100" as="geometry">
            <mxPoint x="800" y="265" as="sourcePoint" />
            <mxPoint x="1149" y="440" as="targetPoint" />
            <Array as="points">
              <mxPoint x="1230" y="360" />
              <mxPoint x="1190" y="350" />
              <mxPoint x="870" y="365" />
              <mxPoint x="910" y="325" />
              <mxPoint x="890" y="355" />
              <mxPoint x="1020" y="375" />
              <mxPoint x="950" y="315" />
              <mxPoint x="1290" y="355" />
              <mxPoint x="1290" y="345" />
              <mxPoint x="1360" y="399.5" />
              <mxPoint x="1400" y="349.5" />
              <mxPoint x="1692" y="495" />
            </Array>
          </mxGeometry>
        </mxCell>
        <mxCell id="KjV3DGh9lTV0_PXk-z0F-82" value="Volver de viaje&#xa;/ Alexis, Grace, Levi y Lakysha" style="rounded=1;fillColor=#10739E;strokeColor=none;shadow=1;gradientColor=none;fontStyle=1;fontColor=#FFFFFF;fontSize=14;" parent="1" vertex="1">
          <mxGeometry x="1620" y="792.5" width="220" height="75" as="geometry" />
        </mxCell>
        <mxCell id="KjV3DGh9lTV0_PXk-z0F-83" value="" style="edgeStyle=elbowEdgeStyle;elbow=vertical;strokeWidth=4;endArrow=block;endFill=1;fontStyle=1;strokeColor=#23445D;exitX=0.5;exitY=1;exitDx=0;exitDy=0;entryX=0.5;entryY=0;entryDx=0;entryDy=0;" parent="1" source="KjV3DGh9lTV0_PXk-z0F-77" target="KjV3DGh9lTV0_PXk-z0F-82" edge="1">
          <mxGeometry x="1702" y="787.5" width="100" height="100" as="geometry">
            <mxPoint x="1872.5" y="857.5" as="sourcePoint" />
            <mxPoint x="2172.5" y="817.5" as="targetPoint" />
            <Array as="points">
              <mxPoint x="1800" y="742.5" />
              <mxPoint x="1972.5" y="830.5" />
              <mxPoint x="1902.5" y="937.5" />
              <mxPoint x="1980" y="1057.5" />
              <mxPoint x="1910" y="997.5" />
              <mxPoint x="2250" y="1037.5" />
              <mxPoint x="2250" y="1027.5" />
              <mxPoint x="2320" y="1082" />
              <mxPoint x="2360" y="1032" />
              <mxPoint x="2652" y="1177.5" />
            </Array>
          </mxGeometry>
        </mxCell>
        <mxCell id="KjV3DGh9lTV0_PXk-z0F-84" value="Proponer un diseño, método de impresión y &#xa;distribución del informe anual&#xa;/ Grace y Alexis" style="rounded=1;fillColor=#10739E;strokeColor=none;shadow=1;gradientColor=none;fontStyle=1;fontColor=#FFFFFF;fontSize=14;" parent="1" vertex="1">
          <mxGeometry x="2060" y="400" width="305" height="70" as="geometry" />
        </mxCell>
        <mxCell id="KjV3DGh9lTV0_PXk-z0F-85" value="Contratar a varios contratistas / Alexis" style="rounded=1;fillColor=#10739E;strokeColor=none;shadow=1;gradientColor=none;fontStyle=1;fontColor=#FFFFFF;fontSize=14;" parent="1" vertex="1">
          <mxGeometry x="2062.5" y="540" width="300" height="60" as="geometry" />
        </mxCell>
        <mxCell id="KjV3DGh9lTV0_PXk-z0F-86" value="" style="edgeStyle=elbowEdgeStyle;elbow=vertical;strokeWidth=4;endArrow=block;endFill=1;fontStyle=1;strokeColor=#23445D;exitX=0.5;exitY=1;exitDx=0;exitDy=0;entryX=0.5;entryY=0;entryDx=0;entryDy=0;" parent="1" source="KjV3DGh9lTV0_PXk-z0F-84" target="KjV3DGh9lTV0_PXk-z0F-85" edge="1">
          <mxGeometry x="1894.5" y="125.5" width="100" height="100" as="geometry">
            <mxPoint x="1894.5" y="225.5" as="sourcePoint" />
            <mxPoint x="1994.5" y="125.5" as="targetPoint" />
            <Array as="points">
              <mxPoint x="2222.5" y="500" />
              <mxPoint x="2512.5" y="400" />
              <mxPoint x="2452.5" y="420" />
              <mxPoint x="2512.5" y="400" />
              <mxPoint x="2472.5" y="430" />
              <mxPoint x="2524.5" y="515.5" />
            </Array>
          </mxGeometry>
        </mxCell>
        <mxCell id="KjV3DGh9lTV0_PXk-z0F-87" value="Analizar las propuestas y precios estimados &#xa;de los contratistas / Alexis y Grace" style="rounded=1;fillColor=#10739E;strokeColor=none;shadow=1;gradientColor=none;fontStyle=1;fontColor=#FFFFFF;fontSize=14;" parent="1" vertex="1">
          <mxGeometry x="2057.5" y="660" width="310" height="60" as="geometry" />
        </mxCell>
        <mxCell id="KjV3DGh9lTV0_PXk-z0F-88" value="Hacer los cálculos de envío e impresión &#xa;del documento / Grace" style="rounded=1;fillColor=#10739E;strokeColor=none;shadow=1;gradientColor=none;fontStyle=1;fontColor=#FFFFFF;fontSize=14;" parent="1" vertex="1">
          <mxGeometry x="2057.5" y="810" width="310" height="70" as="geometry" />
        </mxCell>
        <mxCell id="KjV3DGh9lTV0_PXk-z0F-89" value="" style="edgeStyle=elbowEdgeStyle;elbow=vertical;strokeWidth=4;endArrow=block;endFill=1;fontStyle=1;strokeColor=#23445D;entryX=0.5;entryY=0;entryDx=0;entryDy=0;exitX=0.5;exitY=1;exitDx=0;exitDy=0;" parent="1" source="KjV3DGh9lTV0_PXk-z0F-85" target="KjV3DGh9lTV0_PXk-z0F-87" edge="1">
          <mxGeometry x="2044.5" y="400" width="100" height="100" as="geometry">
            <mxPoint x="2482.5" y="600" as="sourcePoint" />
            <mxPoint x="2712.5" y="814.5" as="targetPoint" />
            <Array as="points">
              <mxPoint x="2192.5" y="650" />
              <mxPoint x="2322.5" y="670" />
              <mxPoint x="2252.5" y="610" />
              <mxPoint x="2592.5" y="650" />
              <mxPoint x="2592.5" y="640" />
              <mxPoint x="2662.5" y="694.5" />
              <mxPoint x="2702.5" y="644.5" />
              <mxPoint x="2994.5" y="790" />
            </Array>
          </mxGeometry>
        </mxCell>
        <mxCell id="KjV3DGh9lTV0_PXk-z0F-90" value="" style="edgeStyle=elbowEdgeStyle;elbow=vertical;strokeWidth=4;endArrow=block;endFill=1;fontStyle=1;strokeColor=#23445D;entryX=0.5;entryY=0;entryDx=0;entryDy=0;exitX=0.5;exitY=1;exitDx=0;exitDy=0;" parent="1" source="KjV3DGh9lTV0_PXk-z0F-87" target="KjV3DGh9lTV0_PXk-z0F-88" edge="1">
          <mxGeometry x="2044.5" y="530" width="100" height="100" as="geometry">
            <mxPoint x="2212.4999999999995" y="730" as="sourcePoint" />
            <mxPoint x="2212.4999999999995" y="790" as="targetPoint" />
            <Array as="points">
              <mxPoint x="2212.5" y="750" />
              <mxPoint x="2192.5" y="780" />
              <mxPoint x="2322.5" y="800" />
              <mxPoint x="2252.5" y="740" />
              <mxPoint x="2592.5" y="780" />
              <mxPoint x="2592.5" y="770" />
              <mxPoint x="2662.5" y="824.5" />
              <mxPoint x="2702.5" y="774.5" />
              <mxPoint x="2994.5" y="920" />
            </Array>
          </mxGeometry>
        </mxCell>
        <mxCell id="KjV3DGh9lTV0_PXk-z0F-91" value="Preparar el informe anual, con gráficas y&#xa; información detallada / Levi y Alexis" style="rounded=1;fillColor=#10739E;strokeColor=none;shadow=1;gradientColor=none;fontStyle=1;fontColor=#FFFFFF;fontSize=14;" parent="1" vertex="1">
          <mxGeometry x="2427.5" y="400" width="300" height="70" as="geometry" />
        </mxCell>
        <mxCell id="KjV3DGh9lTV0_PXk-z0F-92" value="Presentar el proyecto, explicar y&#xa; entregar el informe anual final &#xa;/ Alexis, Grace, Levi y Lakysha" style="rounded=1;fillColor=#10739E;strokeColor=none;shadow=1;gradientColor=none;fontStyle=1;fontColor=#FFFFFF;fontSize=14;" parent="1" vertex="1">
          <mxGeometry x="2422.5" y="532.5" width="310" height="75" as="geometry" />
        </mxCell>
        <mxCell id="KjV3DGh9lTV0_PXk-z0F-93" value="" style="edgeStyle=elbowEdgeStyle;elbow=vertical;strokeWidth=4;endArrow=block;endFill=1;fontStyle=1;strokeColor=#23445D;exitX=0.5;exitY=1;exitDx=0;exitDy=0;entryX=0.5;entryY=0;entryDx=0;entryDy=0;" parent="1" source="KjV3DGh9lTV0_PXk-z0F-91" target="KjV3DGh9lTV0_PXk-z0F-92" edge="1">
          <mxGeometry x="2229.5" y="130.5" width="100" height="100" as="geometry">
            <mxPoint x="2547.5" y="475" as="sourcePoint" />
            <mxPoint x="2547.5" y="545" as="targetPoint" />
            <Array as="points">
              <mxPoint x="2557.5" y="505" />
              <mxPoint x="2847.5" y="405" />
              <mxPoint x="2787.5" y="425" />
              <mxPoint x="2847.5" y="405" />
              <mxPoint x="2807.5" y="435" />
              <mxPoint x="2859.5" y="520.5" />
            </Array>
          </mxGeometry>
        </mxCell>
        <mxCell id="KjV3DGh9lTV0_PXk-z0F-96" value="Preparar el reporte de estados financieros &#xa;del centro / Grace" style="rounded=1;fillColor=#10739E;strokeColor=none;shadow=1;gradientColor=none;fontStyle=1;fontColor=#FFFFFF;fontSize=14;" parent="1" vertex="1">
          <mxGeometry x="2052.5" y="935" width="320" height="75" as="geometry" />
        </mxCell>
        <mxCell id="KjV3DGh9lTV0_PXk-z0F-97" value="Hacer un presupuesto del proyecto / Grace y Alexis" style="rounded=1;fillColor=#10739E;strokeColor=none;shadow=1;gradientColor=none;fontStyle=1;fontColor=#FFFFFF;fontSize=14;" parent="1" vertex="1">
          <mxGeometry x="2030" y="1060" width="365" height="60" as="geometry" />
        </mxCell>
        <mxCell id="KjV3DGh9lTV0_PXk-z0F-98" value="" style="edgeStyle=elbowEdgeStyle;elbow=vertical;strokeWidth=4;endArrow=block;endFill=1;fontStyle=1;strokeColor=#23445D;exitX=0.5;exitY=1;exitDx=0;exitDy=0;entryX=0.5;entryY=0;entryDx=0;entryDy=0;" parent="1" source="KjV3DGh9lTV0_PXk-z0F-96" target="KjV3DGh9lTV0_PXk-z0F-97" edge="1">
          <mxGeometry x="1864.5" y="665.5" width="100" height="100" as="geometry">
            <mxPoint x="2182.5" y="1010" as="sourcePoint" />
            <mxPoint x="2182.5" y="1080" as="targetPoint" />
            <Array as="points">
              <mxPoint x="2192.5" y="1040" />
              <mxPoint x="2482.5" y="940" />
              <mxPoint x="2422.5" y="960" />
              <mxPoint x="2482.5" y="940" />
              <mxPoint x="2442.5" y="970" />
              <mxPoint x="2494.5" y="1055.5" />
            </Array>
          </mxGeometry>
        </mxCell>
        <mxCell id="KjV3DGh9lTV0_PXk-z0F-99" value="" style="edgeStyle=elbowEdgeStyle;elbow=vertical;strokeWidth=4;endArrow=block;endFill=1;fontStyle=1;strokeColor=#23445D;exitX=0.5;exitY=1;exitDx=0;exitDy=0;entryX=0.5;entryY=0;entryDx=0;entryDy=0;" parent="1" source="KjV3DGh9lTV0_PXk-z0F-88" target="KjV3DGh9lTV0_PXk-z0F-96" edge="1">
          <mxGeometry x="2219.5" y="720" width="100" height="100" as="geometry">
            <mxPoint x="2387.5" y="910" as="sourcePoint" />
            <mxPoint x="2327.5" y="920" as="targetPoint" />
            <Array as="points">
              <mxPoint x="2277.5" y="910" />
              <mxPoint x="2497.5" y="990" />
              <mxPoint x="2427.5" y="930" />
              <mxPoint x="2767.5" y="970" />
              <mxPoint x="2767.5" y="960" />
              <mxPoint x="2837.5" y="1014.5" />
              <mxPoint x="2877.5" y="964.5" />
              <mxPoint x="3169.5" y="1110" />
            </Array>
          </mxGeometry>
        </mxCell>
        <mxCell id="KjV3DGh9lTV0_PXk-z0F-100" value="" style="edgeStyle=elbowEdgeStyle;elbow=vertical;strokeWidth=4;endArrow=block;endFill=1;fontStyle=1;strokeColor=#23445D;entryX=0.5;entryY=0;entryDx=0;entryDy=0;exitX=0.5;exitY=1;exitDx=0;exitDy=0;" parent="1" source="2" target="KjV3DGh9lTV0_PXk-z0F-84" edge="1">
          <mxGeometry x="972" y="85" width="100" height="100" as="geometry">
            <mxPoint x="980" y="240" as="sourcePoint" />
            <mxPoint x="1445" y="410" as="targetPoint" />
            <Array as="points">
              <mxPoint x="1120" y="360" />
              <mxPoint x="920" y="360" />
              <mxPoint x="1460" y="340" />
              <mxPoint x="1420" y="330" />
              <mxPoint x="1100" y="345" />
              <mxPoint x="1140" y="305" />
              <mxPoint x="1120" y="335" />
              <mxPoint x="1250" y="355" />
              <mxPoint x="1180" y="295" />
              <mxPoint x="1520" y="335" />
              <mxPoint x="1520" y="325" />
              <mxPoint x="1590" y="379.5" />
              <mxPoint x="1630" y="329.5" />
              <mxPoint x="1922" y="475" />
            </Array>
          </mxGeometry>
        </mxCell>
        <mxCell id="KjV3DGh9lTV0_PXk-z0F-101" value="" style="edgeStyle=elbowEdgeStyle;elbow=vertical;strokeWidth=4;endArrow=block;endFill=1;fontStyle=1;strokeColor=#23445D;entryX=0.5;entryY=0;entryDx=0;entryDy=0;exitX=0.5;exitY=1;exitDx=0;exitDy=0;" parent="1" source="2" target="KjV3DGh9lTV0_PXk-z0F-91" edge="1">
          <mxGeometry x="1072" y="55" width="100" height="100" as="geometry">
            <mxPoint x="850" y="230" as="sourcePoint" />
            <mxPoint x="1655" y="390" as="targetPoint" />
            <Array as="points">
              <mxPoint x="1110" y="360" />
              <mxPoint x="1020" y="330" />
              <mxPoint x="1560" y="310" />
              <mxPoint x="1520" y="300" />
              <mxPoint x="1200" y="315" />
              <mxPoint x="1240" y="275" />
              <mxPoint x="1220" y="305" />
              <mxPoint x="1350" y="325" />
              <mxPoint x="1280" y="265" />
              <mxPoint x="1620" y="305" />
              <mxPoint x="1620" y="295" />
              <mxPoint x="1690" y="349.5" />
              <mxPoint x="1730" y="299.5" />
              <mxPoint x="2022" y="445" />
            </Array>
          </mxGeometry>
        </mxCell>
        <mxCell id="Bm0WUKxJZmd5jiTpsUOj-54" value="" style="edgeStyle=elbowEdgeStyle;elbow=vertical;strokeWidth=4;endArrow=block;endFill=1;fontStyle=1;strokeColor=#23445D;exitX=0.5;exitY=1;exitDx=0;exitDy=0;entryX=0.5;entryY=0;entryDx=0;entryDy=0;" edge="1" parent="1" source="KjV3DGh9lTV0_PXk-z0F-76" target="KjV3DGh9lTV0_PXk-z0F-82">
          <mxGeometry x="1368.5" y="797.5" width="100" height="100" as="geometry">
            <mxPoint x="1546.5" y="710" as="sourcePoint" />
            <mxPoint x="1390" y="857.5" as="targetPoint" />
            <Array as="points">
              <mxPoint x="1660" y="742.5" />
              <mxPoint x="1639" y="840.5" />
              <mxPoint x="1569" y="947.5" />
              <mxPoint x="1646.5" y="1067.5" />
              <mxPoint x="1576.5" y="1007.5" />
              <mxPoint x="1916.5" y="1047.5" />
              <mxPoint x="1916.5" y="1037.5" />
              <mxPoint x="1986.5" y="1092" />
              <mxPoint x="2026.5" y="1042" />
              <mxPoint x="2318.5" y="1187.5" />
            </Array>
          </mxGeometry>
        </mxCell>
      </root>
    </mxGraphModel>
  </diagram>
</mxfile>
